 <svg version="1.0" 
 xmlns="http://www.w3.org/2000/svg" 
 width="700.000000pt" height="137.000000pt"
  viewBox="0 0 700.000000 137.000000"
   preserveAspectRatio="xMidYMid meet">
<metadata>
Created by potrace 1.12, written by Peter Selinger 2001-2015
</metadata>
<g transform="translate(0.000000,137.000000) scale(0.100000,-0.100000)" fill="#000000" stroke="none">
<path d="M1240 923 c-34 -6 -50 -23 -22 -23 31 0 29 -16 -28 -219 -27 -98 -50
-183 -50 -190 0 -7 9 -11 22 -9 16 2 25 15 36 48 18 54 86 155 125 184 48 36
52 11 16 -107 -33 -108 -33 -137 -1 -137 22 0 90 55 80 66 -5 4 -16 0 -26 -9
-31 -28 -31 -9 -1 81 32 96 36 134 14 152 -27 22 -72 1 -126 -58 -29 -31 -49
-49 -45 -39 3 10 15 53 26 95 10 43 26 96 34 119 19 54 15 58 -54 46z"></path>
<path d="M780 909 c0 -4 9 -9 20 -12 27 -7 26 -21 -15 -172 -54 -196 -64 -223
-86 -230 -11 -4 -18 -9 -16 -12 8 -8 147 -9 147 0 0 4 -7 7 -15 7 -9 0 -18 7
-22 16 -7 20 37 186 49 182 5 -2 33 -41 61 -87 l51 -83 -22 -18 c-12 -10 -22
-20 -22 -22 0 -1 41 -3 90 -3 50 0 90 2 90 5 0 3 -13 11 -29 17 -20 7 -50 42
-101 118 -39 59 -68 110 -63 114 46 41 213 160 231 165 54 17 -3 25 -107 16
-2 0 2 -7 9 -15 6 -8 9 -19 5 -25 -13 -21 -180 -141 -183 -131 -2 5 6 41 18
80 14 50 26 72 40 76 39 13 19 20 -55 20 -41 0 -75 -3 -75 -6z"></path>
<path d="M2560 911 c0 -4 11 -13 25 -19 14 -6 25 -15 25 -19 0 -22 -101 -357
-111 -369 -6 -8 -20 -14 -30 -14 -11 0 -19 -3 -19 -8 0 -4 29 -7 65 -7 36 0
65 3 65 8 0 4 -7 7 -15 7 -9 0 -18 7 -21 15 -6 15 62 273 75 288 4 4 16 -65
26 -153 12 -95 24 -160 30 -160 6 0 62 72 124 160 63 88 116 158 118 156 8 -8
-69 -271 -85 -288 -8 -10 -23 -18 -34 -18 -10 0 -18 -3 -18 -7 0 -5 38 -8 85
-8 47 0 85 3 85 8 0 4 -6 7 -14 7 -36 0 -35 25 16 205 28 99 55 186 60 193 6
6 19 12 29 12 11 0 19 5 19 11 0 7 -16 8 -47 3 -27 -3 -48 -7 -49 -8 -1 0 -57
-77 -124 -170 -68 -93 -125 -165 -127 -160 -1 5 -12 81 -23 169 -12 88 -22
160 -23 161 -10 6 -107 11 -107 5z"></path>
<path d="M4010 908 c0 -5 7 -8 15 -8 9 0 18 -6 21 -14 7 -18 -82 -343 -102
-373 -8 -13 -23 -23 -34 -23 -11 0 -20 -3 -20 -7 0 -5 36 -8 80 -8 44 0 80 3
80 8 0 4 -6 7 -14 7 -8 0 -18 4 -21 10 -7 11 33 169 48 188 6 8 39 12 98 12
103 0 100 4 70 -101 -24 -86 -37 -109 -61 -109 -11 0 -20 -3 -20 -7 0 -5 36
-8 80 -8 77 0 101 7 60 18 -28 7 -26 27 25 204 46 161 65 203 90 203 8 0 15 3
15 8 0 4 -36 7 -80 7 -77 0 -101 -7 -60 -18 24 -6 25 -30 2 -112 l-17 -60 -98
-3 c-53 -1 -97 0 -97 4 0 3 10 40 22 81 19 65 26 77 52 89 17 7 29 14 26 15
-21 5 -160 2 -160 -3z"></path>
<path d="M4784 865 c-4 -9 -2 -21 4 -27 16 -16 47 -5 47 17 0 26 -42 34 -51
10z"></path>
<path d="M2232 811 c-11 -16 -35 -35 -52 -42 -32 -15 -40 -29 -15 -29 21 0 19
-17 -15 -132 -33 -110 -32 -138 4 -138 29 0 76 36 76 57 0 13 -4 12 -23 -5
-13 -12 -26 -20 -29 -17 -7 7 51 205 65 223 5 6 18 12 28 12 26 0 24 16 -2 23
-16 4 -20 10 -14 24 24 59 13 72 -23 24z"></path>
<path d="M1595 754 c-68 -35 -121 -111 -131 -187 -15 -106 69 -132 159 -49
l27 26 0 -37 c0 -32 3 -37 23 -37 13 0 36 14 52 30 27 28 24 45 -3 18 -25 -25
-23 5 10 122 19 66 31 123 26 126 -5 3 -20 -1 -33 -10 -20 -13 -25 -13 -35 -1
-16 19 -57 19 -95 -1z m83 -16 c33 -33 -1 -142 -62 -196 -110 -97 -140 51 -32
163 43 45 72 55 94 33z"></path>
<path d="M1855 763 c-33 -5 -59 -23 -33 -23 30 0 30 -18 -1 -128 -17 -59 -31
-113 -31 -120 0 -7 11 -12 25 -12 18 0 25 5 25 18 0 58 123 232 163 232 24 0
22 -18 -14 -131 -33 -103 -33 -129 1 -129 24 0 88 55 77 67 -5 4 -15 -1 -23
-11 -27 -37 -27 -5 -1 84 31 102 33 132 12 150 -25 21 -67 1 -123 -58 -49 -53
-53 -55 -46 -27 4 17 11 40 15 53 5 13 9 28 9 33 0 9 -2 9 -55 2z"></path>
<path d="M3125 752 c-72 -44 -125 -132 -125 -207 0 -50 22 -75 66 -75 30 0
104 43 104 60 0 6 4 10 9 10 5 0 8 -15 7 -32 -1 -27 3 -34 20 -36 24 -3 83 42
71 54 -4 4 -14 -1 -22 -12 -14 -19 -14 -19 -14 1 0 11 13 67 29 125 17 58 30
111 30 118 0 17 -26 15 -45 -4 -15 -15 -17 -15 -34 0 -23 21 -59 20 -96 -2z
m95 -17 c29 -35 -20 -162 -79 -204 -59 -42 -98 -19 -87 52 18 109 122 205 166
152z"></path>
<path d="M3353 759 c-36 -10 -45 -29 -14 -29 10 0 24 -7 31 -15 13 -15 33
-206 24 -230 -4 -9 0 -15 7 -15 8 0 40 45 73 100 32 55 62 100 66 100 4 0 11
-45 15 -100 5 -64 11 -100 19 -100 15 1 115 130 144 187 27 53 27 106 -2 111
-30 6 -41 -13 -22 -39 9 -13 16 -30 16 -37 0 -18 -87 -152 -99 -152 -5 0 -13
50 -16 110 -4 61 -11 113 -15 115 -5 3 -30 -31 -57 -76 -82 -136 -80 -135 -88
-54 -13 134 -19 143 -82 124z"></path>
<path d="M4507 749 c-45 -23 -93 -87 -108 -141 -20 -75 20 -138 89 -138 37 0
60 10 110 47 44 33 31 48 -15 18 -20 -14 -49 -25 -64 -25 -60 0 -93 75 -39 91
89 25 112 35 140 62 78 77 -7 142 -113 86z m92 -13 c15 -18 2 -46 -35 -75 -28
-22 -92 -46 -101 -37 -11 11 20 67 54 96 37 33 64 38 82 16z"></path>
<path d="M4760 763 c-41 -5 -66 -23 -32 -23 30 0 29 -23 -8 -143 -31 -104 -31
-127 4 -127 25 0 95 54 84 66 -5 4 -17 -1 -28 -11 -38 -35 -36 -21 36 228 3
10 0 16 -8 15 -7 0 -29 -3 -48 -5z"></path>
<path d="M4930 763 c-48 -8 -57 -14 -32 -24 28 -11 28 -16 -8 -140 -16 -57
-30 -107 -30 -111 0 -5 11 -8 23 -8 19 0 26 8 36 42 16 51 51 107 103 164 72
78 85 53 43 -79 -31 -97 -33 -137 -5 -137 24 0 88 55 77 66 -4 4 -14 -1 -21
-12 -29 -39 -27 -2 4 100 25 83 29 109 20 125 -23 43 -99 12 -147 -60 -32 -49
-42 -35 -20 29 8 23 12 44 9 47 -6 5 -10 5 -52 -2z"></path>
</g>
</svg>