 <svg version="1.0" xmlns="http://www.w3.org/2000/svg" width="700.000000pt" height="700.000000pt" viewBox="0 0 700.000000 700.000000" preserveAspectRatio="xMidYMid meet">
<metadata>
Created by potrace 1.12, written by Peter Selinger 2001-2015
</metadata>
<g transform="translate(0.000000,700.000000) scale(0.100000,-0.100000)" fill="#000000" stroke="none">
<path d="M3410 6710 c0 -6 37 -10 90 -10 53 0 90 4 90 10 0 6 -37 10 -90 10
-53 0 -90 -4 -90 -10z"></path>
<path d="M3230 6700 c0 -6 33 -10 80 -10 47 0 80 4 80 10 0 6 -33 10 -80 10
-47 0 -80 -4 -80 -10z"></path>
<path d="M3620 6700 c0 -6 32 -10 75 -10 43 0 75 4 75 10 0 6 -32 10 -75 10
-43 0 -75 -4 -75 -10z"></path>
<path d="M3130 6690 c0 -5 18 -10 40 -10 22 0 40 5 40 10 0 6 -18 10 -40 10
-22 0 -40 -4 -40 -10z"></path>
<path d="M3790 6693 c0 -10 149 -27 158 -18 10 10 -5 14 -81 21 -49 4 -77 3
-77 -3z"></path>
<path d="M3050 6680 c0 -5 14 -10 30 -10 17 0 30 5 30 10 0 6 -13 10 -30 10
-16 0 -30 -4 -30 -10z"></path>
<path d="M2958 6673 c-16 -2 -28 -9 -28 -15 0 -6 12 -8 31 -4 17 3 40 6 50 6
11 0 19 5 19 10 0 10 -20 11 -72 3z"></path>
<path d="M3970 6672 c0 -5 36 -14 80 -21 108 -16 294 -62 431 -107 497 -160
985 -465 1341 -837 54 -56 97 -97 98 -91 0 6 -60 71 -133 145 -461 466 -1061
784 -1706 903 -95 18 -111 19 -111 8z"></path>
<path d="M2870 6650 c0 -5 9 -10 20 -10 11 0 20 5 20 10 0 6 -9 10 -20 10 -11
0 -20 -4 -20 -10z"></path>
<path d="M2820 6640 c0 -5 7 -10 15 -10 8 0 15 5 15 10 0 6 -7 10 -15 10 -8 0
-15 -4 -15 -10z"></path>
<path d="M3513 6258 c-18 -6 -33 -15 -33 -19 0 -13 54 -11 67 2 7 7 19 9 28 5
14 -5 15 -8 2 -26 -8 -11 -13 -34 -11 -51 l4 -31 -49 36 c-27 20 -53 36 -59
36 -5 0 -15 6 -21 14 -6 8 -36 17 -67 21 -45 5 -62 3 -95 -14 -22 -12 -48 -21
-58 -21 -42 0 -165 -69 -271 -153 -49 -38 -56 -48 -63 -92 -5 -28 -18 -60 -30
-73 -21 -22 -21 -23 -3 -56 19 -36 18 -73 -3 -171 -23 -103 25 -525 60 -525
15 0 10 131 -7 180 -16 46 -15 60 12 185 23 106 50 157 100 196 25 19 57 44
71 57 31 26 25 24 90 27 29 1 59 7 67 14 26 22 80 33 166 35 50 2 94 8 106 16
18 11 37 11 115 0 52 -7 136 -14 187 -16 51 -1 107 -8 125 -15 71 -28 187
-140 187 -179 0 -6 4 -18 10 -28 5 -9 21 -46 36 -82 l28 -65 0 -292 c1 -291 5
-327 35 -309 17 11 14 111 -4 126 -24 20 -20 112 5 135 12 10 19 24 16 31 -3
7 1 17 8 23 33 28 56 195 56 412 0 121 -3 149 -16 160 -8 7 -13 21 -10 32 3
12 -4 27 -18 41 -22 21 -41 54 -38 69 1 4 -4 7 -12 7 -8 0 -24 12 -35 26 -21
26 -22 26 -41 9 -11 -10 -22 -16 -25 -13 -3 3 -9 35 -13 71 -6 47 -15 74 -30
90 -12 13 -22 31 -22 40 0 10 -12 22 -27 28 -16 6 -41 20 -58 33 -34 25 -85
38 -235 61 -142 22 -189 25 -227 13z m124 -24 c-3 -3 -12 -4 -19 -1 -8 3 -5 6
6 6 11 1 17 -2 13 -5z m-252 -94 c3 -5 1 -10 -5 -10 -7 0 -10 -6 -7 -13 7 -19
-3 -32 -38 -50 -29 -15 -31 -14 -32 5 -2 22 18 48 36 48 6 0 11 7 11 15 0 17
25 20 35 5z m-210 -140 c3 -5 1 -10 -4 -10 -6 0 -11 5 -11 10 0 6 2 10 4 10 3
0 8 -4 11 -10z"></path>
<path d="M3130 5770 c0 -5 4 -10 9 -10 6 0 13 5 16 10 3 6 -1 10 -9 10 -9 0
-16 -4 -16 -10z"></path>
<path d="M820 5273 c-69 -101 -100 -163 -56 -109 14 16 30 41 37 55 8 14 31
52 52 84 21 32 37 60 35 62 -1 1 -32 -40 -68 -92z"></path>
<path d="M3668 5307 c-64 -21 -110 -82 -78 -102 6 -4 22 -29 35 -56 27 -52 35
-58 55 -34 7 8 16 15 21 15 5 0 6 -7 3 -15 -5 -12 2 -15 34 -15 21 0 60 -3 86
-6 36 -5 46 -4 46 7 0 23 17 42 29 34 9 -5 9 -11 -1 -23 -12 -14 -10 -14 17
-7 39 12 104 8 121 -6 9 -7 14 -7 14 -1 0 17 -23 29 -110 57 -90 28 -146 28
-201 -1 -26 -13 -27 -12 -22 9 15 61 83 91 180 81 l58 -6 -25 21 c-14 12 -38
28 -53 36 -39 20 -163 27 -209 12z m13 -90 c-1 -28 -6 -56 -10 -60 -9 -9 -61
48 -61 67 0 21 56 61 69 50 3 -3 4 -28 2 -57z"></path>
<path d="M3166 5272 c-71 -39 -69 -49 12 -48 52 1 75 -4 97 -19 31 -21 65 -28
65 -14 0 4 -4 11 -10 14 -13 8 -13 45 1 45 21 0 49 -21 49 -36 0 -9 -7 -28
-16 -44 -18 -29 -12 -64 9 -58 6 3 13 13 15 24 2 10 10 33 18 51 19 42 18 48
-9 66 -25 16 -138 48 -165 46 -9 0 -39 -13 -66 -27z"></path>
<path d="M3098 5127 c-71 -27 -75 -44 -10 -44 26 0 91 -1 146 -3 54 -1 102 2
107 7 6 6 0 20 -15 36 -23 25 -31 27 -98 26 -49 0 -92 -8 -130 -22z"></path>
<path d="M4304 5125 c-3 -8 -3 -18 0 -24 6 -9 -6 -119 -20 -183 -9 -46 10 -32
39 27 28 58 35 123 17 169 -11 29 -28 34 -36 11z"></path>
<path d="M720 5110 c-6 -11 -8 -20 -6 -20 3 0 10 9 16 20 6 11 8 20 6 20 -3 0
-10 -9 -16 -20z"></path>
<path d="M2847 5084 c-4 -4 -7 -31 -7 -60 0 -43 4 -55 20 -64 26 -14 34 -8 50
31 12 29 11 32 -21 65 -19 19 -38 32 -42 28z"></path>
<path d="M683 5048 c-6 -7 -13 -22 -17 -32 -5 -15 -4 -17 8 -7 7 6 16 21 19
31 6 23 3 25 -10 8z"></path>
<path d="M3780 5051 c0 -21 131 -28 148 -8 9 10 -6 13 -69 14 -43 1 -79 -2
-79 -6z"></path>
<path d="M3154 5015 c4 -13 84 -11 97 2 7 7 -6 10 -45 9 -32 0 -54 -5 -52 -11z"></path>
<path d="M571 4832 c-7 -13 -11 -28 -8 -35 2 -7 9 -2 16 11 7 13 11 28 8 35
-2 7 -9 2 -16 -11z"></path>
<path d="M541 4762 c-7 -13 -11 -28 -8 -35 2 -7 9 -2 16 11 7 13 11 28 8 35
-2 7 -9 2 -16 -11z"></path>
<path d="M3515 4769 c-12 -19 5 -23 22 -6 16 16 16 17 1 17 -9 0 -20 -5 -23
-11z"></path>
<path d="M3387 4754 c-22 -12 -27 -20 -21 -37 12 -40 23 -47 70 -40 36 5 49 2
67 -15 21 -19 127 -42 127 -27 0 4 -10 15 -22 25 -27 22 -18 35 25 35 26 0 33
4 35 24 8 51 -63 69 -102 26 -13 -14 -28 -25 -33 -25 -5 0 -24 11 -43 25 -39
29 -63 31 -103 9z"></path>
<path d="M3697 4733 c-9 -14 -2 -73 8 -76 6 -1 11 17 13 41 3 37 -8 56 -21 35z"></path>
<path d="M517 4704 c-4 -4 -7 -14 -7 -23 0 -11 3 -12 11 -4 6 6 10 16 7 23 -2
6 -7 8 -11 4z"></path>
<path d="M490 4636 c-5 -15 -13 -39 -16 -54 -10 -40 11 -15 26 31 14 44 6 63
-10 23z"></path>
<path d="M3410 4539 c-19 -12 -45 -30 -57 -41 -14 -13 -30 -19 -43 -15 -23 6
-66 -31 -52 -45 5 -5 42 -2 83 6 99 19 337 29 380 15 19 -6 47 -17 62 -26 28
-15 57 -12 57 6 0 16 -65 51 -95 51 -15 0 -34 9 -43 19 -10 10 -38 27 -65 36
-44 17 -49 17 -65 1 -10 -9 -25 -16 -33 -16 -7 0 -37 -10 -66 -22 -29 -12 -56
-18 -60 -14 -12 12 36 46 63 46 13 0 24 5 24 10 0 17 -54 11 -90 -11z m250
-42 c0 -5 -14 -7 -32 -3 -37 7 -42 11 -34 24 7 12 66 -7 66 -21z"></path>
<path d="M3054 4397 c9 -22 27 -52 41 -69 20 -24 25 -40 25 -84 0 -34 4 -53
10 -49 6 3 10 30 10 58 0 46 -5 60 -41 107 -56 75 -63 81 -45 37z"></path>
<path d="M3615 4423 c-11 -3 -29 -12 -40 -20 l-20 -15 20 6 c11 3 32 8 48 12
15 3 27 10 27 15 0 10 -3 10 -35 2z"></path>
<path d="M3450 4370 c0 -5 7 -10 15 -10 8 0 15 5 15 10 0 6 -7 10 -15 10 -8 0
-15 -4 -15 -10z"></path>
<path d="M4080 4330 c0 -5 5 -10 10 -10 6 0 10 5 10 10 0 6 -4 10 -10 10 -5 0
-10 -4 -10 -10z"></path>
<path d="M3430 4273 c0 -11 81 -45 89 -38 3 3 -2 12 -10 20 -17 18 -79 32 -79
18z"></path>
<path d="M3060 4174 c-70 -30 -103 -78 -138 -199 -31 -104 -59 -332 -43 -348
9 -9 19 -3 47 31 28 33 42 42 67 42 58 0 77 -19 105 -102 14 -43 30 -78 35
-78 6 0 25 -11 43 -25 51 -39 107 -27 70 14 -9 10 -16 23 -16 29 0 16 27 15
37 0 4 -7 17 -18 28 -24 11 -6 25 -21 31 -32 6 -12 22 -30 36 -42 43 -33 68
-149 68 -308 0 -73 4 -132 8 -132 4 0 14 39 21 88 16 113 36 156 102 219 73
70 93 85 174 129 69 37 124 80 125 98 0 12 32 35 49 36 11 0 11 -4 -2 -18 -10
-10 -17 -23 -17 -27 0 -5 -14 -24 -32 -42 -26 -27 -28 -33 -14 -33 10 0 34 16
53 35 19 19 39 33 43 30 4 -3 34 9 66 25 72 36 74 36 74 6 0 -36 17 -41 36
-11 9 14 26 25 39 25 26 0 38 13 68 72 28 54 56 63 54 17 -1 -17 3 -34 9 -36
14 -5 34 139 36 257 1 89 -14 179 -38 218 -21 32 -86 71 -134 78 -40 6 -41 6
-35 -17 3 -13 7 -56 8 -95 2 -66 0 -74 -35 -127 -47 -70 -68 -84 -151 -101
-78 -17 -132 -7 -173 31 -30 28 -27 57 11 107 30 40 105 184 105 202 0 16 -16
19 -25 4 -10 -16 -131 -68 -199 -86 -74 -20 -221 -13 -287 12 -24 9 -66 35
-92 57 -45 37 -69 44 -51 15 5 -7 9 -31 10 -54 1 -22 18 -80 38 -130 52 -124
52 -124 19 -74 -38 56 -73 90 -73 68 0 -8 12 -25 26 -39 14 -13 37 -46 51 -73
14 -27 40 -72 58 -100 17 -28 46 -76 64 -106 43 -73 140 -177 174 -186 31 -7
49 2 28 15 -8 5 1 10 26 14 68 12 68 8 8 -53 -33 -33 -64 -60 -70 -60 -6 0
-57 54 -114 120 -71 81 -111 120 -125 120 -41 1 -105 39 -137 82 -17 24 -52
85 -77 137 -41 85 -44 97 -34 130 10 32 16 129 13 189 -1 26 -5 26 -51 6z
m190 -560 c0 -14 -3 -14 -15 -4 -8 7 -15 14 -15 16 0 2 7 4 15 4 8 0 15 -7 15
-16z m574 -80 c-11 -17 -20 -22 -27 -15 -12 12 8 41 29 41 12 0 11 -5 -2 -26z"></path>
<path d="M4510 3842 c0 -5 23 -14 52 -21 87 -20 570 -223 606 -254 12 -11 22
-16 22 -10 0 27 -77 66 -374 190 -203 84 -306 116 -306 95z"></path>
<path d="M2927 3543 c-4 -37 -3 -71 2 -76 4 -4 37 -7 72 -5 51 2 64 6 67 20 3
15 -2 17 -30 11 -18 -4 -46 -7 -63 -8 l-30 0 3 63 c5 84 -13 80 -21 -5z"></path>
<path d="M4268 3498 c-3 -31 -12 -56 -22 -63 -9 -7 -16 -15 -16 -19 0 -11 27
-6 38 7 16 18 28 127 15 127 -6 0 -13 -23 -15 -52z"></path>
<path d="M4690 3452 c-8 -15 -16 -31 -19 -36 -2 -5 1 -6 8 -2 13 8 34 56 28
62 -2 2 -10 -8 -17 -24z"></path>
<path d="M3927 3452 c-9 -10 -17 -35 -17 -54 0 -52 -25 -75 -95 -88 -61 -10
-140 -44 -185 -79 -44 -35 -13 -34 47 2 67 39 107 53 175 63 59 8 72 23 78 93
l5 56 41 0 c54 0 61 19 8 23 -29 2 -45 -2 -57 -16z"></path>
<path d="M4060 3430 c0 -6 30 -10 70 -10 40 0 70 4 70 10 0 6 -30 10 -70 10
-40 0 -70 -4 -70 -10z"></path>
<path d="M5019 3340 c-84 -43 -245 -220 -313 -343 -39 -71 -52 -107 -38 -107
6 0 12 10 16 23 10 42 149 241 210 303 34 33 91 78 129 99 37 22 67 43 67 47
0 12 -11 9 -71 -22z"></path>
<path d="M4640 3340 c0 -5 5 -10 10 -10 6 0 10 5 10 10 0 6 -4 10 -10 10 -5 0
-10 -4 -10 -10z"></path>
<path d="M3536 3246 c-9 -21 -16 -42 -16 -46 0 -9 52 -20 62 -13 12 7 10 41
-3 48 -6 4 -14 17 -18 29 -8 19 -10 18 -25 -18z"></path>
<path d="M4180 3035 c-7 -9 -25 -22 -40 -30 -19 -10 -29 -26 -37 -60 -6 -25
-8 -47 -4 -49 3 -2 31 -7 61 -11 30 -4 82 -16 115 -26 64 -19 207 -50 211 -46
6 6 -9 117 -16 117 -4 0 -11 -16 -15 -36 l-6 -37 -45 7 c-25 3 -55 11 -67 18
-21 11 -82 20 -141 21 -28 0 -28 1 -23 44 2 25 9 49 15 55 15 15 74 14 108 -3
17 -9 46 -14 67 -11 26 3 43 -2 63 -17 33 -26 44 -27 44 -2 0 30 -20 39 -125
56 -55 8 -112 18 -126 21 -17 4 -30 0 -39 -11z"></path>
<path d="M4255 2960 c3 -5 13 -10 21 -10 8 0 12 5 9 10 -3 6 -13 10 -21 10 -8
0 -12 -4 -9 -10z"></path>
<path d="M4350 2940 c0 -5 9 -10 21 -10 11 0 17 5 14 10 -3 6 -13 10 -21 10
-8 0 -14 -4 -14 -10z"></path>
<path d="M3420 2920 c0 -5 5 -10 10 -10 6 0 10 5 10 10 0 6 -4 10 -10 10 -5 0
-10 -4 -10 -10z"></path>
<path d="M3503 2890 c3 -12 -1 -24 -11 -29 -14 -8 -15 -14 -6 -28 13 -21 65
-25 72 -5 2 6 -3 12 -12 12 -18 0 -21 21 -5 37 15 15 3 33 -23 33 -15 0 -19
-5 -15 -20z"></path>
<path d="M4015 2880 c3 -5 13 -10 21 -10 8 0 14 5 14 10 0 6 -9 10 -21 10 -11
0 -17 -4 -14 -10z"></path>
<path d="M4110 2856 c0 -8 -4 -16 -9 -18 -5 -1 -11 -12 -13 -23 -2 -13 5 -22
25 -29 24 -9 31 -7 43 9 19 26 18 35 -7 35 -16 0 -19 4 -14 20 5 14 2 20 -9
20 -9 0 -16 -6 -16 -14z"></path>
<path d="M5030 2855 c-7 -8 -8 -15 -2 -15 5 0 15 7 22 15 7 8 8 15 2 15 -5 0
-15 -7 -22 -15z"></path>
<path d="M4200 2851 c0 -5 9 -13 20 -16 11 -3 20 -13 20 -21 0 -8 4 -13 9 -9
5 3 22 -6 37 -20 15 -14 33 -25 40 -25 7 0 17 -6 21 -13 4 -8 16 -17 26 -20
24 -9 18 -41 -9 -45 -11 -2 -28 6 -39 18 -26 29 -32 25 -38 -27 -3 -27 -9 -57
-13 -68 -7 -18 -6 -18 9 -6 9 7 17 19 17 26 0 29 26 36 76 18 27 -10 52 -22
55 -27 8 -11 -26 -114 -45 -135 -7 -9 -17 -26 -20 -38 -7 -22 -21 -28 -58 -25
-10 1 -18 -3 -18 -9 0 -6 -6 -9 -14 -6 -7 3 -18 1 -24 -5 -10 -10 -27 1 -85
55 -20 19 -26 32 -19 39 16 16 46 5 52 -21 3 -16 14 -25 30 -28 13 -2 27 -7
30 -12 3 -4 12 -6 21 -2 13 5 8 12 -22 36 -38 30 -47 49 -30 60 5 3 26 -15 46
-40 21 -25 41 -45 46 -45 15 0 10 26 -11 53 -30 38 -24 43 16 12 34 -26 36
-26 50 -9 17 23 29 63 20 71 -3 3 -10 -6 -15 -21 -12 -31 -20 -32 -52 -7 -37
29 -69 36 -69 16 0 -13 -6 -16 -22 -11 -13 3 -26 6 -30 6 -5 0 -8 6 -8 14 0 9
-7 12 -20 9 -14 -4 -20 0 -20 10 0 10 -6 13 -20 10 -14 -4 -20 0 -20 10 0 10
-6 13 -20 10 -15 -4 -20 0 -20 15 0 28 19 72 43 99 l20 22 -27 11 c-37 14 -47
5 -35 -27 8 -21 7 -29 -6 -35 -11 -7 -15 -25 -15 -67 l0 -59 34 -6 c26 -5 36
-13 40 -32 4 -15 5 -29 2 -31 -8 -8 -27 8 -21 17 3 5 -3 14 -14 20 -32 16 -35
-7 -6 -36 15 -14 24 -32 21 -40 -7 -19 41 -74 59 -67 9 3 15 -1 15 -10 0 -9
13 -25 29 -36 l29 -21 49 25 c26 14 69 48 95 77 26 29 50 49 54 45 4 -4 -1
-16 -10 -26 -10 -11 -15 -24 -12 -29 6 -10 -48 -72 -63 -72 -15 0 -83 -42 -77
-47 6 -6 96 19 96 27 0 3 11 17 24 31 13 14 34 45 46 69 20 39 20 44 6 52 -9
5 -14 14 -10 19 4 6 11 6 20 -2 23 -19 44 7 44 57 0 24 -4 44 -10 44 -5 0 -10
-7 -10 -15 0 -23 -30 -65 -46 -65 -18 0 -18 10 1 24 17 13 55 153 55 203 0 39
-16 48 -100 57 -35 4 -56 2 -61 -6 -4 -6 -14 -8 -24 -5 -9 4 -13 11 -10 17 4
6 -9 17 -27 24 -56 23 -78 28 -78 17z m195 -90 c3 -5 1 -12 -5 -16 -5 -3 -10
1 -10 9 0 18 6 21 15 7z m45 -15 c0 -11 -19 -15 -25 -6 -3 5 1 10 9 10 9 0 16
-2 16 -4z m40 -16 c0 -5 -4 -10 -10 -10 -5 0 -10 5 -10 10 0 6 5 10 10 10 6 0
10 -4 10 -10z m-15 -70 c3 -5 1 -10 -4 -10 -6 0 -11 5 -11 10 0 6 2 10 4 10 3
0 8 -4 11 -10z"></path>
<path d="M4005 2841 c-3 -5 -1 -12 5 -16 12 -7 30 2 30 16 0 12 -27 12 -35 0z"></path>
<path d="M4772 2793 c-53 -68 -55 -89 -3 -33 27 30 50 58 51 63 1 18 -21 4
-48 -30z"></path>
<path d="M4925 2750 c-38 -38 -67 -72 -64 -74 3 -3 36 26 74 64 38 38 67 72
64 74 -3 3 -36 -26 -74 -64z"></path>
<path d="M3996 2803 c-12 -12 -5 -23 14 -23 11 0 20 4 20 9 0 11 -26 22 -34
14z"></path>
<path d="M3986 2751 c-4 -5 2 -15 11 -20 17 -11 17 -11 0 -22 -19 -11 -14 -29
9 -29 11 0 14 9 12 37 -3 36 -20 54 -32 34z"></path>
<path d="M2210 2745 c0 -2 20 -27 45 -55 25 -28 53 -63 62 -78 34 -53 107
-141 115 -136 16 10 7 40 -14 49 -13 6 -36 31 -53 56 -56 86 -155 191 -155
164z"></path>
<path d="M4152 2728 c5 -15 28 -18 29 -3 0 6 -7 12 -17 13 -10 3 -15 -1 -12
-10z"></path>
<path d="M4220 2694 c-11 -12 -10 -18 4 -32 16 -16 18 -16 31 2 11 14 12 23 4
33 -15 17 -24 16 -39 -3z"></path>
<path d="M2424 2648 c3 -17 8 -34 11 -36 11 -11 16 9 10 37 -9 42 -29 41 -21
-1z"></path>
<path d="M3990 2645 c0 -9 6 -12 15 -9 8 4 12 10 9 15 -8 14 -24 10 -24 -6z"></path>
<path d="M416 2588 c8 -27 12 -33 19 -27 7 8 -7 49 -17 49 -5 0 -6 -10 -2 -22z"></path>
<path d="M4001 2594 c0 -11 3 -14 6 -6 3 7 2 16 -1 19 -3 4 -6 -2 -5 -13z"></path>
<path d="M4341 2598 c-1 -10 6 -18 14 -18 8 0 15 5 15 11 0 5 -4 8 -9 5 -5 -4
-12 0 -14 6 -3 8 -6 6 -6 -4z"></path>
<path d="M4011 2556 c-14 -17 -1 -28 19 -16 11 7 12 12 4 20 -8 8 -14 7 -23
-4z"></path>
<path d="M440 2506 c0 -2 21 -60 46 -128 62 -167 195 -436 292 -590 75 -120
162 -239 162 -223 0 4 -40 68 -89 143 -162 251 -263 447 -347 673 -27 71 -52
129 -56 129 -5 0 -8 -2 -8 -4z"></path>
<path d="M4015 2501 c-3 -5 -1 -12 5 -16 12 -7 30 2 30 16 0 12 -27 12 -35 0z"></path>
<path d="M4968 2433 c-40 -37 -75 -69 -77 -70 -2 -2 -2 -5 0 -7 5 -5 162 122
167 135 10 24 -25 2 -90 -58z"></path>
<path d="M4046 2462 c-3 -6 -1 -14 5 -17 15 -10 25 3 12 16 -7 7 -13 7 -17 1z"></path>
<path d="M2335 2406 c22 -19 42 -33 44 -30 10 10 -38 59 -60 62 -21 2 -20 -1
16 -32z"></path>
<path d="M2404 2366 c-7 -28 2 -49 17 -41 12 8 12 52 -1 60 -5 3 -12 -5 -16
-19z"></path>
<path d="M3362 2268 c-7 -68 -17 -184 -23 -258 -5 -74 -14 -164 -19 -200 -20
-134 -7 -206 20 -112 10 37 50 542 50 639 0 96 -16 55 -28 -69z"></path>
<path d="M4116 2381 c-4 -5 -2 -12 3 -15 5 -4 12 -2 15 3 4 5 2 12 -3 15 -5 4
-12 2 -15 -3z"></path>
<path d="M4150 2340 c0 -5 7 -10 16 -10 8 0 12 5 9 10 -3 6 -10 10 -16 10 -5
0 -9 -4 -9 -10z"></path>
<path d="M4202 2305 c4 -4 2 -17 -3 -28 -10 -18 -9 -19 14 -13 14 3 29 2 32
-4 11 -18 23 -10 23 15 0 17 -6 25 -18 25 -10 0 -27 3 -37 7 -10 3 -15 3 -11
-2z"></path>
<path d="M2405 2270 c-7 -12 2 -30 16 -30 12 0 12 27 0 35 -5 3 -12 1 -16 -5z"></path>
<path d="M1602 2192 c-20 -6 -62 -56 -62 -74 0 -4 27 -23 60 -42 49 -29 68
-35 101 -31 108 10 502 -81 639 -148 45 -22 45 -22 48 -80 3 -59 3 -59 30 -52
15 5 43 11 62 14 46 8 45 31 -3 54 -26 12 -37 23 -35 35 6 30 46 24 141 -21
51 -24 104 -47 118 -50 14 -4 42 -17 61 -31 32 -22 63 -31 93 -27 5 1 -11 21
-35 46 -34 34 -52 45 -75 45 -39 0 -141 41 -210 83 -28 18 -60 37 -71 43 -13
8 -20 24 -22 53 -4 50 -22 55 -22 6 0 -27 -4 -35 -18 -35 -10 0 -22 4 -28 9
-30 28 -382 138 -593 185 -116 27 -139 29 -179 18z"></path>
<path d="M2415 2180 c-7 -12 12 -40 27 -40 13 0 6 43 -9 47 -6 2 -14 -1 -18
-7z"></path>
<path d="M4955 2161 c-66 -19 -176 -74 -198 -100 -8 -9 -17 -35 -20 -58 -4
-36 -2 -43 12 -43 10 0 26 9 36 20 49 55 174 100 275 100 83 0 151 -22 195
-65 35 -32 35 -32 35 -124 0 -50 4 -91 8 -91 15 0 70 65 91 107 31 62 26 98
-22 167 -63 89 -104 106 -242 105 -72 0 -130 -6 -170 -18z"></path>
<path d="M2430 2094 c0 -8 5 -12 10 -9 6 3 10 10 10 16 0 5 -4 9 -10 9 -5 0
-10 -7 -10 -16z"></path>
<path d="M4568 1988 c-18 -15 -34 -58 -21 -58 9 0 53 54 53 65 0 9 -16 5 -32
-7z"></path>
<path d="M4633 1888 c-33 -35 -68 -76 -78 -93 -10 -16 -50 -62 -89 -102 -60
-62 -67 -73 -51 -79 15 -6 33 8 87 67 68 74 178 212 198 250 20 36 -7 19 -67
-43z"></path>
<path d="M4755 1849 c-16 -24 -50 -67 -76 -94 -25 -28 -58 -69 -72 -92 -14
-23 -31 -44 -37 -48 -15 -9 -12 -25 4 -25 15 0 77 65 96 100 8 15 19 20 38 18
24 -3 27 1 33 39 4 22 17 60 29 83 30 58 20 71 -15 19z"></path>
<path d="M2337 1863 c-11 -18 -37 -137 -37 -166 0 -49 -15 -90 -43 -121 l-26
-28 -47 36 c-45 35 -74 45 -74 27 0 -13 65 -60 108 -77 65 -27 156 -75 202
-109 38 -27 95 -55 216 -105 12 -4 34 -29 50 -55 68 -109 76 -115 234 -169
238 -81 380 -147 429 -200 21 -23 22 -26 7 -32 -32 -12 -386 13 -402 29 -4 4
-1 13 6 22 19 23 5 29 -24 10 -14 -9 -45 -23 -70 -30 -42 -13 -50 -12 -90 6
-25 11 -107 29 -183 40 -137 20 -161 24 -300 53 -57 12 -90 13 -149 6 -41 -5
-80 -12 -85 -16 -10 -6 -106 8 -221 32 -37 8 -92 14 -122 14 -46 0 -57 4 -67
21 -24 45 -49 232 -49 366 0 82 -4 133 -10 133 -16 0 -12 -253 5 -387 25 -191
59 -235 196 -254 39 -6 108 -22 153 -35 44 -14 119 -37 166 -50 47 -14 112
-41 145 -59 33 -18 87 -43 120 -54 33 -11 105 -36 160 -56 55 -20 115 -40 132
-45 19 -4 50 -27 72 -51 35 -38 42 -42 58 -32 60 42 69 44 135 29 35 -7 85
-25 112 -40 46 -25 56 -26 192 -26 132 0 148 2 201 26 99 44 303 86 426 87
106 2 109 3 133 30 19 22 37 31 77 36 29 4 81 23 117 41 50 27 79 35 130 38
36 2 97 14 135 27 183 60 182 60 357 60 188 0 202 5 245 81 31 57 108 330 143
512 17 86 41 200 55 252 22 85 25 113 10 98 -11 -11 -55 -186 -91 -357 -30
-147 -93 -371 -132 -471 l-9 -25 -15 35 c-16 36 -70 90 -91 90 -7 0 -44 -9
-82 -20 -100 -30 -239 -37 -289 -16 -21 9 -58 16 -82 16 -28 0 -64 10 -101 29
-32 16 -83 31 -114 35 -31 3 -74 12 -97 20 -23 8 -92 16 -159 19 -65 2 -145
11 -178 20 -90 24 -318 57 -421 61 -71 2 -102 8 -147 29 -31 14 -78 29 -104
32 -27 4 -100 17 -163 30 -82 17 -144 23 -215 22 -89 -1 -106 2 -155 25 -30
15 -75 36 -100 47 -67 32 -92 48 -102 65 -5 9 -17 16 -26 16 -9 0 -37 9 -61
20 -49 22 -48 17 -18 140 22 88 47 205 47 219 0 12 -16 15 -23 4z m1703 -852
c95 -13 146 -27 156 -43 9 -15 -200 -4 -241 12 -16 7 -46 13 -65 14 -25 1 -36
6 -38 20 -4 21 9 20 188 -3z m-566 -236 c20 -28 11 -31 -129 -45 -66 -6 -169
-17 -228 -25 -132 -18 -211 -20 -201 -4 8 13 118 65 179 85 28 9 90 13 202 11
149 -2 163 -4 177 -22z"></path>
<path d="M5224 800 c-14 -14 -161 -92 -319 -170 -154 -75 -345 -145 -376 -137
-21 6 -24 0 -10 -22 6 -9 19 -12 39 -8 88 18 420 170 576 264 43 27 87 53 97
59 29 16 34 24 18 24 -8 0 -19 -4 -25 -10z"></path>
<path d="M2330 650 c0 -5 5 -10 10 -10 6 0 10 5 10 10 0 6 -4 10 -10 10 -5 0
-10 -4 -10 -10z"></path>
<path d="M2320 565 c0 -64 -7 -59 140 -110 338 -117 793 -185 1140 -170 258
11 630 63 630 87 0 6 -14 7 -37 3 -21 -5 -58 -9 -83 -10 -25 -1 -97 -10 -160
-19 -260 -39 -651 -37 -925 4 -147 21 -387 79 -640 153 -39 12 -40 13 -43 65
-4 69 -22 67 -22 -3z"></path>
<path d="M4455 440 c-3 -5 1 -10 9 -10 9 0 16 5 16 10 0 6 -4 10 -9 10 -6 0
-13 -4 -16 -10z"></path>
<path d="M4313 413 c-35 -14 -63 -29 -63 -35 0 -5 8 -7 18 -4 9 3 47 13 85 22
37 9 67 20 67 25 0 5 -4 9 -9 9 -5 0 -15 2 -23 4 -7 2 -41 -7 -75 -21z"></path>
</g>
</svg>