 <svg version="1.0" xmlns="http://www.w3.org/2000/svg" width="700.000000pt" height="137.000000pt" viewBox="0 0 700.000000 137.000000" preserveAspectRatio="xMidYMid meet">
<metadata>
Created by potrace 1.12, written by Peter Selinger 2001-2015
</metadata>
<g transform="translate(0.000000,137.000000) scale(0.100000,-0.100000)" fill="#000000" stroke="none">
<path d="M2893 790 c3 -12 -3 -51 -14 -88 -22 -77 -22 -82 -10 -82 5 0 13 10
16 23 9 27 55 78 66 71 4 -2 1 -23 -7 -46 -17 -49 -17 -48 -1 -48 12 0 37 71
37 105 0 20 -29 19 -53 -2 -20 -18 -20 -17 -14 12 4 17 9 40 13 53 5 18 2 22
-16 22 -18 0 -21 -4 -17 -20z"></path>
<path d="M2725 780 c6 -20 -20 -116 -36 -134 -16 -18 -9 -26 22 -26 26 0 29 3
20 14 -8 10 -8 21 -1 41 l10 27 20 -25 c11 -14 17 -32 14 -41 -5 -13 1 -16 29
-16 l35 0 -30 33 c-17 17 -37 47 -45 65 -12 30 -12 37 2 58 15 24 15 24 -15
24 -27 0 -30 -3 -25 -20z"></path>
<path d="M2810 785 c0 -18 8 -18 40 0 l25 14 -32 1 c-23 0 -33 -5 -33 -15z"></path>
<path d="M3487 788 c4 -7 6 -21 4 -32 -1 -10 2 -22 8 -26 7 -3 14 -30 18 -59
5 -46 8 -51 21 -38 12 12 12 21 3 48 -6 17 -11 44 -11 60 0 41 -10 59 -32 59
-13 0 -17 -4 -11 -12z"></path>
<path d="M3637 782 c-10 -10 -17 -30 -17 -44 0 -36 -20 -91 -38 -105 -13 -11
-10 -13 23 -13 27 0 36 3 28 11 -14 14 21 140 44 157 15 11 15 12 -4 12 -11 0
-27 -8 -36 -18z"></path>
<path d="M4088 787 c12 -14 -16 -126 -38 -153 -10 -12 -7 -14 19 -14 27 0 31
3 26 19 -3 10 -1 30 4 45 9 21 17 26 45 26 45 0 49 -9 27 -54 l-19 -36 30 0
c24 0 28 3 23 19 -8 26 23 133 43 149 13 10 10 12 -22 12 -32 0 -36 -2 -27
-14 8 -9 8 -21 1 -40 -8 -21 -16 -26 -44 -26 -19 0 -38 4 -41 10 -7 11 12 51
29 62 6 4 -6 8 -28 8 -31 0 -36 -3 -28 -13z"></path>
<path d="M4430 780 c0 -5 5 -10 10 -10 6 0 10 5 10 10 0 6 -4 10 -10 10 -5 0
-10 -4 -10 -10z"></path>
<path d="M3319 754 c-7 -8 -14 -25 -15 -37 -1 -12 -5 -39 -9 -59 -6 -32 -5
-38 9 -38 10 0 15 4 12 9 -7 11 13 71 31 92 13 16 9 49 -7 49 -4 0 -13 -7 -21
-16z"></path>
<path d="M3027 710 c-46 -54 -26 -113 26 -80 15 9 22 10 25 1 2 -6 9 -11 16
-11 8 0 16 20 19 52 4 28 5 53 4 55 -2 1 -17 6 -34 9 -25 5 -34 1 -56 -26z
m71 -2 c5 -24 -42 -73 -61 -65 -24 9 -21 34 8 63 27 27 48 28 53 2z"></path>
<path d="M3159 738 c0 -2 -1 -21 -3 -43 -2 -22 -7 -48 -11 -57 -15 -36 15 -17
34 21 21 40 18 81 -5 81 -8 0 -14 -1 -15 -2z"></path>
<path d="M3219 723 c-10 -11 -10 -14 -1 -9 23 14 32 -4 17 -34 -18 -36 -19
-60 -2 -60 15 0 42 93 32 110 -9 15 -31 12 -46 -7z"></path>
<path d="M3691 711 c-24 -23 -32 -37 -29 -58 3 -27 6 -28 56 -29 48 -1 52 1
52 22 0 12 5 35 10 50 12 32 12 32 -26 40 -24 5 -36 0 -63 -25z m67 -3 c4 -20
-43 -71 -60 -66 -20 7 -19 21 2 56 22 35 52 40 58 10z"></path>
<path d="M3807 733 c-4 -3 -2 -12 3 -19 6 -6 12 -27 14 -45 4 -46 20 -52 24
-10 6 61 -15 100 -41 74z"></path>
<path d="M3940 733 c1 -18 18 -35 24 -24 4 6 4 16 1 21 -7 12 -25 13 -25 3z"></path>
<path d="M4294 730 c-28 -11 -51 -67 -37 -89 13 -21 53 -25 78 -7 26 19 14 32
-14 14 -17 -10 -23 -10 -33 1 -11 11 -11 14 0 18 9 4 10 9 2 17 -7 9 -5 18 9
30 27 24 48 11 25 -15 -14 -15 -14 -19 -3 -19 20 0 39 20 39 42 0 20 -29 23
-66 8z"></path>
<path d="M4401 731 c-8 -6 -10 -11 -3 -15 8 -4 7 -19 -3 -46 -8 -24 -10 -42
-4 -45 14 -10 26 2 32 32 3 16 9 40 13 56 7 28 -7 36 -35 18z"></path>
<path d="M4487 733 c-2 -5 -4 -21 -5 -36 -1 -15 -6 -37 -12 -47 -7 -13 -7 -21
1 -25 6 -4 11 -5 12 -4 1 2 10 19 20 37 21 41 22 82 3 82 -8 0 -17 -3 -19 -7z"></path>
<path d="M4542 728 c-17 -17 -15 -33 2 -19 22 19 28 -3 11 -42 -10 -25 -12
-38 -4 -43 17 -10 26 7 34 64 6 47 5 52 -12 52 -10 0 -24 -5 -31 -12z"></path>
<path d="M3582 710 c-18 -29 -15 -38 4 -12 9 13 14 25 12 27 -2 2 -9 -5 -16
-15z"></path>
<path d="M3887 723 c-8 -14 8 -98 18 -95 6 1 10 9 9 17 0 8 -1 31 -2 50 -2 32
-14 46 -25 28z"></path>
<path d="M3464 665 c-3 -14 -14 -30 -23 -35 -12 -7 -9 -9 17 -10 24 0 31 3 25
13 -4 6 -6 22 -4 35 3 30 -7 28 -15 -3z"></path>
<path d="M980 434 c0 -8 5 -12 10 -9 6 4 8 11 5 16 -9 14 -15 11 -15 -7z"></path>
</g>
</svg>